# xmcd CD database file
#
# Track frame offsets:
#	150
#	16548
#	34259
#	55190
#	69398
#	87112
#	98846
#	112753
#	130346
#	150625
#	170965
#
# Disc length: 2446 seconds
#
# Revision: 4
# Processed by: cddbd v1.5.2PL0 Copyright (c) Steve Scherf et al.
# Submitted via: CDex 1.51
#
DISCID=82098c0b
DTITLE=Various Artist - ZM-PCP-23-CD1
DYEAR=1900
DGENRE=Blues
TTITLE0=George Ezra - Budapest
TTITLE1=Christina Perri - Burning Gold
TTITLE2=Zedd Ft Foxes - Clarity
TTITLE3=MKTO - Classic
TTITLE4=Cheryl Cole Ft Tinie Tempah - Crazy Stupid Love
TTITLE5=Paul Heaton And Jacqui abbott - DIY
TTITLE6=5 Seconds Of Summer - Don't Stop
TTITLE7=Ella Henderson - Ghost
TTITLE8=Foxes - Glorious
TTITLE9=Will.i.am Ft Cody Wise - It's My Birthday
TTITLE10=Jack White - Lazaretto
EXTD=
EXTT0=
EXTT1=
EXTT2=
EXTT3=
EXTT4=
EXTT5=
EXTT6=
EXTT7=
EXTT8=
EXTT9=
EXTT10=
PLAYORDER=
